<svg width="100" height="100" viewBox="0 0 100 100" xmlns="http://www.w3.org/2000/svg">
  <!-- Background circle -->
  <circle cx="50" cy="50" r="48" fill="#FFE4C4" stroke="#DEB887" stroke-width="2"/>
  
  <!-- Face -->
  <circle cx="50" cy="45" r="20" fill="#FDBCB4"/>
  
  <!-- Hair -->
  <path d="M 30 35 Q 35 25 50 28 Q 65 25 70 35" fill="#8B4513"/>
  <path d="M 32 32 Q 40 22 50 25 Q 60 22 68 32" fill="#A0522D"/>
  
  <!-- Eyes -->
  <circle cx="42" cy="43" r="2" fill="#000"/>
  <circle cx="58" cy="43" r="2" fill="#000"/>
  <circle cx="42.5" cy="42.5" r="0.5" fill="#FFF"/>
  <circle cx="58.5" cy="42.5" r="0.5" fill="#FFF"/>
  
  <!-- Eyebrows -->
  <path d="M 38 38 Q 42 36 46 38" stroke="#8B4513" stroke-width="1.5" fill="none" stroke-linecap="round"/>
  <path d="M 54 38 Q 58 36 62 38" stroke="#8B4513" stroke-width="1.5" fill="none" stroke-linecap="round"/>
  
  <!-- Nose -->
  <ellipse cx="50" cy="50" rx="3" ry="2" fill="#F4A460"/>
  
  <!-- Smile -->
  <path d="M 43 54 Q 50 58 57 54" stroke="#000" stroke-width="1.5" fill="none" stroke-linecap="round"/>
  
  <!-- Cheeks -->
  <circle cx="35" cy="48" r="4" fill="#FFB3BA" opacity="0.4"/>
  <circle cx="65" cy="48" r="4" fill="#FFB3BA" opacity="0.4"/>
</svg>
